<svg xmlns="http://www.w3.org/2000/svg" width="1280" height="576" viewBox="0 0 1280 576" version="1.1"><path d="M 864.920 161.324 C 852.546 167.868, 852.835 186.388, 865.401 192.095 C 869.161 193.802, 872.588 193.958, 906.800 193.978 C 939.234 193.997, 944.517 193.789, 947.300 192.379 C 954.400 188.784, 957.286 184.134, 957.286 176.288 C 957.286 169.507, 953.879 164.088, 947.750 161.121 C 943.527 159.077, 942.030 159, 906.342 159 C 869.522 159, 869.290 159.013, 864.920 161.324 M 332.500 383.665 C 325.531 387.348, 322.714 391.966, 322.714 399.712 C 322.714 406.493, 326.121 411.912, 332.250 414.879 C 336.473 416.923, 337.970 417, 373.658 417 C 410.478 417, 410.710 416.987, 415.080 414.676 C 427.454 408.132, 427.165 389.612, 414.599 383.905 C 410.832 382.195, 407.458 382.045, 373 382.062 C 340.724 382.078, 335.082 382.301, 332.500 383.665" stroke="none" fill="#d1d0de" fill-rule="evenodd"/><path d="M 865.401 107.905 C 858.329 111.117, 854.466 119.273, 856.190 127.354 C 857.339 132.743, 860.290 136.478, 865.323 138.914 C 869.452 140.913, 871.168 141, 906.604 141 C 942.974 141, 943.648 140.963, 947.980 138.750 C 953.181 136.092, 955.809 132.797, 957.018 127.416 C 958.834 119.334, 955.393 112.038, 947.980 108.250 C 943.645 106.035, 942.998 106, 906.538 106.022 C 872.581 106.042, 869.159 106.199, 865.401 107.905 M 332.020 437.250 C 326.819 439.908, 324.191 443.203, 322.982 448.584 C 321.166 456.666, 324.607 463.962, 332.020 467.750 C 336.355 469.965, 337.002 470, 373.462 469.978 C 407.419 469.958, 410.841 469.801, 414.599 468.095 C 421.725 464.858, 425.557 456.719, 423.777 448.600 C 422.584 443.157, 419.713 439.524, 414.677 437.086 C 410.548 435.087, 408.832 435, 373.396 435 C 337.026 435, 336.352 435.037, 332.020 437.250" stroke="none" fill="#999eb9" fill-rule="evenodd"/><path d="M 864.830 55.027 C 852.640 61.466, 852.922 79.911, 865.302 85.904 C 869.458 87.916, 871.112 88, 906.500 88 C 942.027 88, 943.528 87.923, 947.750 85.879 C 953.879 82.912, 957.286 77.493, 957.286 70.712 C 957.286 62.866, 954.400 58.216, 947.300 54.621 C 944.512 53.209, 939.225 53.006, 906.300 53.044 C 870.877 53.086, 868.269 53.210, 864.830 55.027 M 332.168 490.146 C 326.093 493.153, 322.714 498.565, 322.714 505.288 C 322.714 513.134, 325.600 517.784, 332.700 521.379 C 335.482 522.788, 340.817 523, 373.490 523 C 408.963 523, 411.298 522.889, 414.956 521.023 C 427.349 514.700, 427.194 496.145, 414.698 490.096 C 410.542 488.084, 408.890 488, 373.434 488.001 C 337.687 488.002, 336.361 488.070, 332.168 490.146" stroke="none" fill="#717ca1" fill-rule="evenodd"/><path d="M 865.500 1.412 C 853.501 6.745, 852.485 24.312, 863.730 32.017 L 867.353 34.500 906.500 34.500 L 945.646 34.500 949.667 31.839 C 961.098 24.275, 959.312 5.851, 946.685 1.067 C 942.254 -0.612, 869.356 -0.302, 865.500 1.412 M 332.240 543.092 C 321.980 548.215, 319.314 561.277, 326.730 570.091 C 331.627 575.911, 332.332 576, 373.403 576 C 397.444 576, 411.879 575.619, 413.685 574.936 C 426.292 570.173, 427.819 551.899, 416.272 543.983 L 412.650 541.500 374.575 541.232 C 337.468 540.971, 336.392 541.019, 332.240 543.092" stroke="none" fill="#ee3424" fill-rule="evenodd"/><path d="" stroke="none" fill="#c98c94" fill-rule="evenodd"/><path d="M 0.229 262.750 L 0.503 366.500 2.880 372.858 C 8.510 387.920, 22.120 403.006, 36.450 410.069 C 50.888 417.184, 46.998 416.963, 158.250 416.983 L 258 417 258 400.527 L 258 384.053 189.750 383.777 L 121.500 383.500 116.240 381.122 C 109.478 378.066, 100.825 368.868, 98.618 362.392 C 97.170 358.143, 97 347.204, 97 258.322 L 97 159 48.477 159 L -0.045 159 0.229 262.750 M 325 255 L 325 351 373.500 351 L 422 351 422 255 L 422 159 373.500 159 L 325 159 325 255 M 485 287.955 L 485 417 533.500 417 L 582 417 582 305.500 L 582 194 615.039 194 C 633.211 194, 652.393 194.481, 657.666 195.069 C 687.417 198.386, 708.729 212.071, 713.570 230.965 C 716.525 242.501, 712.225 252.918, 699.122 265.968 C 689.920 275.132, 680.827 280.589, 660.570 289.102 C 652.359 292.553, 644.174 296.665, 642.381 298.239 C 635.732 304.076, 635.581 312.276, 641.899 324.341 C 643.961 328.278, 659.035 350.738, 675.397 374.250 L 705.147 417 753.633 417 C 792.157 417, 801.963 416.743, 801.362 415.750 C 800.947 415.063, 798.168 411.191, 795.188 407.147 C 781.959 389.196, 741.818 330.328, 739.306 325.193 C 735.903 318.238, 735.439 309.061, 738.279 304.881 C 739.393 303.242, 745.035 299.765, 753.358 295.589 C 774.310 285.078, 787.570 273.371, 795.073 258.757 C 804.931 239.556, 802.363 218.814, 787.890 200.756 C 772.954 182.121, 749.899 169.583, 717.050 162.232 L 705.500 159.647 595.250 159.278 L 485 158.910 485 287.955 M 1073.056 160.610 C 1061.323 163.175, 1052.587 168.329, 1041.958 178.958 C 1034.457 186.459, 1031.637 190.104, 1028.775 196 C 1020.037 213.998, 1020.044 233.829, 1028.793 252.130 C 1033.969 262.958, 1040.093 270.486, 1050.283 278.549 C 1063.554 289.049, 1069.562 291.860, 1120 311.170 C 1162.642 327.496, 1173.725 333.420, 1180.481 343.500 C 1182.897 347.105, 1183.120 348.191, 1182.739 354.500 C 1182.470 358.954, 1181.546 363.002, 1180.199 365.630 C 1177.348 371.192, 1170.405 377.952, 1164.414 381 L 1159.500 383.500 1090.750 383.777 L 1022 384.053 1022 400.527 L 1022 417 1121.750 416.983 C 1233.002 416.963, 1229.112 417.184, 1243.550 410.069 C 1257.975 402.960, 1271.787 387.589, 1276.988 372.858 C 1280.437 363.091, 1280.930 345.947, 1278.063 335.497 C 1274.642 323.026, 1269.722 314.693, 1260.018 304.929 C 1244.719 289.534, 1239.195 286.674, 1182.694 264.896 C 1162.802 257.228, 1143.146 249.053, 1139.014 246.728 C 1129.120 241.161, 1121.524 233.658, 1119.981 227.930 C 1116.810 216.154, 1125.516 200.816, 1138.878 194.637 C 1143.436 192.529, 1144.441 192.496, 1211.750 192.223 L 1280 191.947 1280 175.473 L 1280 159 1179.750 159.100 C 1097.524 159.183, 1078.341 159.454, 1073.056 160.610 M 858 321 L 858 417 906.500 417 L 955 417 955 321 L 955 225 906.500 225 L 858 225 858 321" stroke="none" fill="#144c7c" fill-rule="evenodd"/></svg>