<svg xmlns="http://www.w3.org/2000/svg" width="1488" height="2340" viewBox="0 0 1488 2340" version="1.1"><path d="M 724.540 806.250 C 724.322 806.938, 701.152 956, 673.052 1137.500 C 644.951 1319, 621.722 1468.566, 621.431 1469.868 C 621.141 1471.170, 620.709 1472.043, 620.473 1471.807 C 620.237 1471.571, 593.457 1357.555, 560.963 1218.439 L 501.881 965.500 502.242 955 C 502.549 946.069, 502.991 943.753, 505.202 939.500 C 506.632 936.750, 508.865 933.509, 510.165 932.298 C 515.195 927.608, 524.060 925.511, 533.250 926.836 L 539 927.665 539 903.833 L 539 880 455.500 880 L 372 880 372 903.386 L 372 926.773 376.711 927.479 C 388.499 929.247, 398.968 935.984, 402.789 944.261 C 403.865 946.593, 450.815 1146.387, 507.122 1388.250 L 609.498 1828 624.249 1828 C 632.362 1828, 639 1827.641, 639 1827.202 C 639 1826.763, 641.717 1808.651, 645.037 1786.952 C 648.358 1765.254, 669.739 1625.325, 692.551 1476 C 715.363 1326.675, 734.194 1204.050, 734.397 1203.500 C 734.601 1202.950, 735.019 1203.175, 735.327 1204 C 735.807 1205.285, 852.052 1802.910, 855.341 1821 L 856.523 1827.500 869.646 1827.778 C 882.576 1828.052, 882.777 1828.023, 883.337 1825.778 C 883.649 1824.525, 927.366 1626.850, 980.484 1386.500 C 1033.603 1146.150, 1077.522 948.075, 1078.082 946.334 C 1079.708 941.276, 1086.347 934.530, 1092.212 931.976 C 1096.584 930.072, 1099.102 929.696, 1106.750 929.804 L 1116 929.935 1116 904.968 L 1116 880 1041.500 880 L 967 880 967 904.392 L 967 928.785 977.250 928.273 C 988.863 927.694, 993.407 928.604, 1000.094 932.844 C 1006.191 936.711, 1009.156 942.901, 1009.747 953 C 1010.163 960.100, 1007.008 974.285, 950.578 1219 C 917.792 1361.175, 890.607 1478.368, 890.164 1479.429 C 889.584 1480.824, 888.774 1478.466, 887.244 1470.929 C 882.539 1447.749, 748.864 808.373, 748.384 806.750 C 747.929 805.215, 746.455 805, 736.401 805 C 728.109 805, 724.827 805.346, 724.540 806.250" stroke="none" fill="#ffffff" fill-rule="evenodd"/><path d="M 719.097 1.612 C 709.094 3.288, 692.629 8.645, 683.829 13.085 C 672.317 18.895, 662.631 26.141, 652 36.895 C 636.724 52.350, 626.007 69.460, 618.475 90.419 L 615.270 99.338 605.385 101.577 C 575.735 108.292, 546.888 124.772, 525.228 147.369 C 517.658 155.267, 507.971 168.581, 504.915 175.288 C 503.687 177.983, 503.616 178, 493.311 178 C 464.611 178, 422.087 185.435, 389.831 196.092 C 355.296 207.502, 325.822 222.024, 293.500 243.555 C 184.152 316.395, 99.823 445.920, 50.363 617 C 22.075 714.848, 6.685 815.535, 0.994 940 C -0.283 967.937, -0.276 1057.904, 1.005 1088 C 6.646 1220.439, 25.352 1351.070, 56.638 1476.500 C 117.431 1720.228, 220.265 1929.771, 352.807 2080 C 379.790 2110.583, 420.090 2149.575, 450.500 2174.522 C 526.770 2237.088, 611.062 2281.005, 697.094 2302.999 L 709.687 2306.218 715.387 2314.099 C 727.378 2330.678, 737.676 2340, 744 2340 C 750.324 2340, 760.622 2330.678, 772.613 2314.099 L 778.313 2306.218 790.906 2302.999 C 876.940 2281.004, 961.452 2236.969, 1037.500 2174.510 C 1080.367 2139.302, 1126.239 2092.701, 1163.690 2046.314 C 1309.753 1865.394, 1415.375 1610.250, 1462.912 1323.500 C 1474.277 1254.943, 1482.785 1175.622, 1485.973 1108.500 C 1486.547 1096.400, 1487.283 1083.575, 1487.607 1080 C 1488.724 1067.685, 1489.095 951.823, 1488.015 952.491 C 1487.356 952.898, 1486.998 949.852, 1486.995 943.809 C 1486.984 923.509, 1482.857 867.145, 1478.406 826.500 C 1457.756 637.954, 1400.668 474.188, 1316.310 361.500 C 1295.704 333.975, 1273.627 309.162, 1251.561 288.729 C 1204.263 244.932, 1153.858 214.491, 1098.169 196.092 C 1065.913 185.435, 1023.389 178, 994.689 178 C 984.384 178, 984.313 177.983, 983.085 175.288 C 980.029 168.581, 970.342 155.267, 962.772 147.369 C 941.112 124.772, 912.265 108.292, 882.615 101.577 L 872.730 99.338 869.518 90.342 C 857.423 56.467, 833.060 27.663, 804.171 13.085 C 794.957 8.436, 778.901 3.314, 768 1.548 C 756.186 -0.367, 730.705 -0.334, 719.097 1.612 M 731.842 24.022 C 699.022 27.047, 674.029 40.657, 654.759 66 C 649.501 72.915, 640.228 90.845, 639.773 94.977 C 639.513 97.336, 639.830 97.492, 646.365 98.235 C 681.556 102.238, 716.904 124.569, 737.260 155.660 C 740.623 160.797, 743.656 165, 744 165 C 744.344 165, 747.494 160.613, 751.001 155.250 C 758.194 144.250, 772.898 128.862, 783.024 121.737 C 801.524 108.720, 822.142 100.452, 841.635 98.235 C 848.063 97.504, 848.483 97.305, 848.240 95.103 C 847.876 91.815, 840.889 77.173, 836.646 70.808 C 827.807 57.546, 814.854 45.134, 802.445 38.034 C 783.312 27.087, 756.444 21.755, 731.842 24.022 M 613.235 121.497 C 584.751 126.661, 559.864 141.780, 542.991 164.173 C 537.310 171.712, 532.458 179.793, 533.180 180.512 C 533.356 180.688, 538.900 182.039, 545.500 183.515 C 578.506 190.899, 606.230 202.074, 626.887 216.321 C 636.792 223.152, 656.193 241.934, 666.291 254.466 C 703.374 300.492, 723 355.019, 723 412.020 C 723 450.664, 713.529 480.339, 693.611 504.103 C 662.187 541.594, 601.099 561.024, 527.338 556.989 C 502.089 555.608, 496.064 554.704, 489.961 551.382 C 474.166 542.786, 461.929 519.378, 455.782 486 C 452.909 470.406, 452.649 429.913, 455.322 414.500 C 462.424 373.555, 478.370 347.179, 498.556 342.988 C 510.175 340.576, 525.614 346.496, 535.470 357.141 C 541.867 364.050, 548.076 376.048, 551.181 387.500 C 554.171 398.527, 554.469 431.100, 551.695 443.695 C 544.674 475.580, 530.786 498.123, 515.675 502.165 C 511.258 503.346, 510.570 503.269, 506.561 501.142 C 494.939 494.976, 486.221 473.118, 485.263 447.742 C 484.261 421.232, 490.478 406.715, 503.459 405.252 C 507.413 404.806, 508.242 405.088, 510.952 407.798 C 512.695 409.541, 514 411.898, 514 413.303 C 514 414.654, 512.235 419.302, 510.078 423.630 C 505.726 432.362, 503.997 439.242, 504.006 447.799 C 504.022 464.298, 511.905 470.738, 521.387 461.997 C 531.644 452.543, 536.380 429.424, 532.960 405.500 C 529.411 380.677, 517.037 365.754, 502.250 368.465 C 496.780 369.467, 487.296 379.456, 482.682 389.075 C 475.241 404.585, 471 425.726, 471 447.306 C 471 469.579, 474.241 485.594, 481.981 501.569 C 490.618 519.397, 502.693 528.031, 517.155 526.720 C 526.553 525.867, 536.783 520.451, 545.444 511.742 C 562.306 494.785, 572.930 471.980, 578.166 441.500 C 579.933 431.216, 580.148 426.854, 579.672 411 C 579.100 391.895, 578.183 385.989, 573.481 371.119 C 567.298 351.567, 557.749 335.676, 544.949 323.634 C 535.499 314.744, 525.091 309.127, 512.013 305.859 C 504.295 303.930, 501.755 303.791, 484.013 304.330 C 450.947 305.335, 423.295 311.692, 391.598 325.573 C 358.414 340.106, 329.465 360.581, 298.398 391.493 C 275.159 414.616, 259.625 433.264, 260.492 437 C 261.760 442.467, 272.690 462.824, 281.059 475.304 C 318.055 530.474, 379.466 584.420, 454.814 627.938 L 462.127 632.163 478.314 626.208 C 502.988 617.130, 522.758 611.762, 544.203 608.319 C 559.912 605.797, 602.176 605.825, 623.500 608.372 C 644.595 610.891, 675.194 616.114, 697.500 621.003 C 737.913 629.860, 740.093 630.236, 747.500 629.632 C 751.350 629.319, 763.275 627.065, 774 624.623 C 833.053 611.182, 866.302 606.610, 905.500 606.544 C 944.756 606.478, 968.428 610.938, 1009.659 626.172 L 1025.818 632.143 1034.159 627.435 C 1089.544 596.176, 1148.652 548.224, 1184.034 505.849 C 1202.560 483.661, 1219.367 457.810, 1225.608 441.903 L 1228.289 435.068 1225.454 431.284 C 1211.129 412.167, 1180.726 380.948, 1161.500 365.613 C 1122.037 334.138, 1080.078 314.733, 1034.500 306.878 C 1026.649 305.525, 1015.917 304.627, 1003.461 304.280 C 986.354 303.805, 983.564 303.965, 975.961 305.857 C 946.751 313.130, 925.116 336.515, 914.100 372.723 C 908.921 389.748, 908.497 393.046, 908.542 416 C 908.589 439.594, 909.974 449.077, 916.025 467.203 C 929.541 507.692, 958.469 533.015, 982.552 525.440 C 999.021 520.260, 1011.982 497.473, 1016.076 466.500 C 1017.714 454.112, 1016.687 427.236, 1014.128 415.500 C 1011.785 404.757, 1007.089 391.537, 1003.343 385.136 C 999.420 378.432, 991.343 370.268, 987.321 368.941 C 976.370 365.327, 964.197 374.260, 958.949 389.761 C 949.968 416.290, 953.539 449.946, 966.613 461.997 C 976.307 470.933, 983.999 464.292, 983.983 447 C 983.975 438.720, 982.002 431.285, 977.537 422.701 C 973.184 414.333, 973.099 411.747, 977.048 407.798 C 979.758 405.088, 980.587 404.806, 984.541 405.252 C 990.468 405.920, 995.260 409.739, 998.329 416.243 C 1002.246 424.542, 1003.313 432.264, 1002.748 448.232 C 1002.202 463.684, 999.709 474.696, 994.356 485.307 C 984.032 505.773, 972.703 508.168, 958.547 492.877 C 951.594 485.367, 946.697 476.585, 941.971 463.152 C 935.608 445.064, 934.512 438.092, 934.558 416 C 934.595 398.121, 934.818 395.690, 937.239 386.761 C 943.850 362.374, 958.594 346.519, 977.918 343.015 C 990.798 340.679, 1001.518 345.590, 1011.445 358.375 C 1027.574 379.145, 1036.037 414.826, 1034.711 456.464 C 1033.489 494.829, 1024.299 525.562, 1009.084 542.167 C 998.373 553.856, 994.118 555.159, 960.662 556.989 C 891.588 560.768, 834.117 544.209, 800.934 510.967 C 777.716 487.708, 766.575 459.096, 765.306 419.463 C 763.389 359.629, 782.860 302.660, 821.687 254.500 C 831.902 241.830, 850.134 224.147, 860.500 216.856 C 881.224 202.280, 908.859 191.077, 943 183.413 C 949.325 181.993, 954.644 180.688, 954.820 180.512 C 955.542 179.793, 950.690 171.712, 945.009 164.173 C 916.310 126.086, 866.388 110.740, 820.836 126.001 C 798.690 133.421, 780.739 145.550, 767.793 161.841 C 761.325 169.981, 753.915 184.403, 751.659 193.241 C 748.801 204.444, 743.992 208.969, 740.541 203.704 C 739.670 202.373, 737.590 197.058, 735.920 191.892 C 725.709 160.303, 702.158 137.726, 667.199 126.013 C 649.928 120.227, 629.619 118.527, 613.235 121.497 M 475.500 203.668 C 443.794 206.297, 418.248 211.892, 385.309 223.421 C 312.807 248.798, 243.610 301.628, 190.430 372.207 C 134.120 446.941, 88.823 548.195, 61.011 661.500 C 32.613 777.190, 17.727 929.475, 21.909 1061.500 C 26.489 1206.067, 44.393 1337.724, 77.460 1470 C 151.257 1765.198, 287.572 2007.434, 459.085 2148.159 C 521.935 2199.728, 591.483 2238.453, 664.500 2262.536 C 674.950 2265.983, 684.689 2269.069, 686.143 2269.394 L 688.786 2269.984 684.416 2259.225 C 676.727 2240.299, 672.536 2221.047, 671.195 2198.496 L 670.500 2186.820 656 2181.083 C 570.214 2147.140, 487.765 2085.838, 414.635 2001.628 C 239.286 1799.709, 117.965 1465.715, 94.570 1120.500 C 91.543 1075.827, 90.738 1043.422, 91.296 988.612 C 91.830 936.243, 92.268 925.274, 95.534 882.500 C 112.317 662.730, 181.168 476.953, 283.998 373.979 C 338.888 319.011, 403.016 287.619, 472 281.946 C 512.879 278.585, 540.684 288.038, 564.899 313.531 C 585.859 335.596, 598.150 365.464, 601.204 401.749 C 604.968 446.486, 591.543 491.910, 565.411 522.856 C 562.498 526.306, 560.997 528.974, 561.194 530.356 C 561.481 532.364, 561.996 532.485, 569.343 532.256 C 587.467 531.693, 613.575 524.364, 634.500 513.965 C 670.499 496.076, 693.030 467.028, 699.472 430.198 C 701.431 419, 701.439 396.530, 699.489 381.301 C 697.777 367.924, 692.342 344.990, 687.840 332.145 C 675.223 296.146, 651.404 262.703, 621 238.298 C 599.320 220.896, 568.995 209.172, 533.699 204.546 C 522.956 203.139, 488.209 202.614, 475.500 203.668 M 953.500 204.499 C 918.253 209.520, 888.243 221.246, 867 238.298 C 825.631 271.504, 799.981 315.974, 789.881 372 C 786.870 388.701, 786.199 415.528, 788.454 429.014 C 794.885 467.476, 817.521 496.511, 855.500 515.011 C 861 517.691, 870.199 521.499, 875.942 523.474 C 893.698 529.582, 924.731 534.862, 926.458 532.069 C 927.752 529.975, 926.128 526.359, 921.654 521.371 C 897.206 494.110, 882.990 445.112, 886.824 401.322 C 888.821 378.514, 892.659 363.922, 901.509 345.500 C 908.199 331.572, 917.078 319.102, 927.165 309.465 C 950.806 286.878, 977.063 278.745, 1016 281.946 C 1144.062 292.476, 1251.389 389.979, 1320.589 558.656 C 1364.559 665.832, 1389.768 793.978, 1396.099 942.500 C 1397.407 973.176, 1396.765 1069.659, 1395.078 1096 C 1390.514 1167.255, 1384.537 1223.770, 1375.464 1281.437 C 1334.340 1542.819, 1240.648 1782.479, 1113.122 1952.500 C 1031.459 2061.375, 933.723 2140.847, 832 2181.085 L 817.500 2186.820 816.821 2198.660 C 815.566 2220.558, 811.337 2239.992, 803.655 2259.159 L 799.328 2269.956 801.914 2269.387 C 807.974 2268.054, 846.591 2254.727, 859 2249.687 C 994.865 2194.494, 1110.108 2093.617, 1210.508 1942 C 1271.836 1849.385, 1322.139 1745.811, 1364.466 1625 C 1447.640 1387.601, 1482.477 1111.242, 1459.955 867.500 C 1444.968 705.302, 1412.995 580.886, 1358.126 471.251 C 1327.412 409.883, 1293.834 361.820, 1253.504 321.500 C 1206.078 274.086, 1155.723 241.624, 1100 222.541 C 1057.728 208.064, 1035.118 204.090, 991.500 203.471 C 970.776 203.177, 960.902 203.444, 953.500 204.499 M 241.380 460.750 C 179.526 554.385, 138.219 682.381, 121.570 832 C 118.948 855.564, 116 890.205, 116 897.455 L 116 901.700 127.750 907.259 C 169.662 927.086, 217.324 940.400, 264.708 945.516 C 270.653 946.158, 270.936 946.088, 271.418 943.843 C 271.695 942.554, 272.863 936.325, 274.015 930 C 286.967 858.837, 317.039 783.759, 353.586 731.339 C 377.204 697.465, 406.506 668.218, 437 648.084 C 441.675 644.998, 445.725 642.155, 446 641.768 C 446.275 641.380, 441.100 637.760, 434.500 633.722 C 376.045 597.963, 325.745 555.751, 289.315 511.885 C 273.741 493.132, 258.976 471.063, 252.761 457.251 C 250.968 453.264, 249.271 450.002, 248.990 450.001 C 248.710 450, 245.285 454.837, 241.380 460.750 M 1235.140 457.438 C 1228.472 472.063, 1214.068 493.414, 1197.394 513.392 C 1161.286 556.655, 1109.720 599.733, 1052.519 634.420 C 1047.004 637.764, 1042.462 640.950, 1042.425 641.500 C 1042.388 642.050, 1046.215 645.130, 1050.929 648.346 C 1129.742 702.096, 1188.937 803.798, 1213.568 927.772 C 1215.495 937.470, 1217.240 945.574, 1217.447 945.780 C 1217.653 945.987, 1222.250 945.636, 1227.661 945.001 C 1273.202 939.658, 1319.671 926.456, 1359.866 907.441 L 1372 901.700 1371.993 896.600 C 1371.984 889.491, 1368.367 848.019, 1365.923 827 C 1350.302 692.630, 1315.255 576.992, 1262.775 486.662 C 1255.170 473.571, 1239.867 449.978, 1239.018 450.034 C 1238.733 450.053, 1236.988 453.385, 1235.140 457.438 M 564.500 633.541 C 517.796 638.387, 484.061 649.258, 454.910 668.856 C 385.058 715.816, 334.780 797.200, 307.477 907.500 C 292.323 968.722, 286.050 1024.728, 286.029 1099 C 285.997 1210.856, 301.498 1318.782, 333.484 1429.402 C 354.555 1502.273, 381.933 1568.713, 424.181 1649.500 C 482.546 1761.109, 541.071 1846.011, 603.971 1910.317 C 646.622 1953.922, 681.373 1980.233, 724.594 2001.645 L 743.688 2011.104 754.699 2006.050 C 799.638 1985.424, 838.852 1956.445, 883.500 1910.870 C 961.399 1831.352, 1035.263 1716.495, 1102.708 1570 C 1150.816 1465.508, 1184.099 1338.040, 1196.968 1209 C 1202.939 1149.127, 1203.570 1064.622, 1198.434 1012.500 C 1185.062 876.777, 1140.424 766.730, 1071.878 700.500 C 1046.283 675.770, 1021.925 659.433, 995.562 649.312 C 969.429 639.280, 926.250 632.033, 892.500 632.014 C 865.229 631.998, 840.564 635.783, 795.423 646.911 C 777.799 651.256, 759.020 655.381, 753.690 656.078 C 740.510 657.802, 731.438 656.507, 696.823 647.956 C 646.320 635.482, 631.411 633.102, 600 632.500 C 585.489 632.222, 573.949 632.560, 564.500 633.541 M 114.330 922.750 C 113.002 930.706, 113.363 1059.085, 114.779 1082.500 C 119.080 1153.647, 124.757 1209.598, 133.548 1267.500 C 160.128 1442.576, 209.829 1607.852, 279.319 1752.250 C 284.916 1763.881, 288.393 1770, 289.403 1770 C 292.243 1770, 321.376 1762.223, 332.407 1758.520 C 366.703 1747.008, 395.709 1732.059, 417.515 1714.658 L 426.089 1707.816 423.996 1704.269 C 410.484 1681.368, 376.475 1613.786, 362.466 1582 C 321.182 1488.325, 293.251 1396.213, 276.499 1298.500 C 258.110 1191.233, 254.313 1075.486, 266.083 981 C 267.213 971.925, 268.220 963.613, 268.319 962.528 C 268.476 960.820, 267.632 960.452, 262 959.774 C 210.765 953.602, 166.527 941.474, 124.610 922.107 C 119.721 919.848, 115.586 918, 115.421 918 C 115.257 918, 114.766 920.138, 114.330 922.750 M 1363 922.198 C 1325.302 940.051, 1275.225 954.075, 1231.500 959.022 C 1226 959.645, 1221.021 960.298, 1220.435 960.475 C 1219.710 960.693, 1220.075 966.349, 1221.574 978.148 C 1231.980 1060.047, 1230.846 1159.153, 1218.428 1253 C 1203.248 1367.735, 1172.525 1476.063, 1124.413 1584.500 C 1109.898 1617.214, 1079.320 1677.863, 1064.345 1703.638 L 1061.941 1707.776 1070.834 1714.867 C 1092.816 1732.398, 1122.295 1747.482, 1157.012 1758.964 C 1171.549 1763.771, 1197.580 1770.375, 1199.338 1769.701 C 1200.642 1769.200, 1216.786 1735.907, 1228.043 1710.500 C 1307.348 1531.511, 1357.659 1321.018, 1371.452 1110.500 C 1374.432 1065.032, 1375.272 1029.611, 1374.643 976 C 1374.064 926.656, 1373.683 917.875, 1372.133 918.086 C 1371.785 918.134, 1367.675 919.984, 1363 922.198 M 0.470 1013.500 C 0.470 1047.050, 0.596 1060.630, 0.750 1043.678 C 0.903 1026.726, 0.903 999.276, 0.749 982.678 C 0.595 966.080, 0.470 979.950, 0.470 1013.500 M 426.500 1726.097 C 410.071 1739.748, 380.133 1756.345, 353.741 1766.432 C 338.633 1772.205, 313.415 1779.848, 302.250 1782.035 C 298.813 1782.709, 296 1783.725, 296 1784.293 C 296 1785.736, 307.087 1806.535, 319.129 1827.682 C 352.672 1886.588, 388.685 1938.320, 428.944 1985.428 C 447.968 2007.689, 488.379 2048.339, 508.500 2065.455 C 531.859 2085.325, 562.850 2108.411, 565.379 2107.826 C 568.085 2107.201, 590.738 2087.009, 603.572 2073.784 C 626.739 2049.911, 641.771 2029.391, 653.595 2005.500 L 660.029 1992.500 657.338 1990.500 C 602.758 1949.934, 546.746 1890.107, 495.839 1818 C 477.140 1791.513, 452.301 1753.061, 438.509 1729.250 C 435.880 1724.713, 433.453 1721.025, 433.115 1721.056 C 432.777 1721.087, 429.800 1723.355, 426.500 1726.097 M 1042.072 1741.582 C 977.129 1849.595, 903.321 1936.498, 830.662 1990.500 L 827.971 1992.500 834.378 2005.500 C 845.941 2028.961, 861.462 2050.101, 884.695 2074.030 C 897.372 2087.087, 918.013 2105.539, 922.006 2107.385 C 924.064 2108.336, 934.957 2101.014, 957.149 2083.760 C 994.461 2054.752, 1038.334 2011.300, 1072.516 1969.500 C 1108.092 1925.995, 1145.213 1870.587, 1176.024 1815 C 1186.778 1795.599, 1192 1785.517, 1192 1784.159 C 1192 1783.664, 1189.188 1782.709, 1185.750 1782.035 C 1174.531 1779.837, 1149.333 1772.193, 1134.259 1766.415 C 1107.675 1756.225, 1079.749 1740.795, 1061.803 1726.379 C 1058.120 1723.421, 1054.958 1721, 1054.777 1721 C 1054.595 1721, 1048.878 1730.262, 1042.072 1741.582 M 667.114 2012.136 C 660.518 2025.554, 647.213 2045.973, 635.937 2059.981 C 624.629 2074.029, 604.299 2094.841, 589.807 2107.206 C 583.297 2112.760, 578.090 2117.411, 578.236 2117.541 C 579.502 2118.674, 599.260 2130.143, 610.500 2136.269 C 630.165 2146.988, 668.134 2164, 672.392 2164 C 673.177 2164, 674.005 2162.427, 674.367 2160.250 C 675.397 2154.045, 679.621 2146.281, 685.144 2140.441 C 711.993 2112.052, 776.007 2112.052, 802.856 2140.441 C 808.379 2146.281, 812.603 2154.045, 813.633 2160.250 C 814.014 2162.543, 814.811 2164, 815.684 2164 C 818.337 2164, 842.388 2153.804, 859.500 2145.425 C 875.097 2137.788, 893.255 2127.839, 905.314 2120.323 L 910.127 2117.323 901.314 2109.986 C 888.598 2099.402, 861.805 2072.226, 852.032 2060 C 840.618 2045.721, 828.360 2026.888, 821.306 2012.795 L 815.448 2001.090 808.974 2005.601 C 789.714 2019.023, 750.530 2039.426, 744 2039.434 C 737.616 2039.441, 698.804 2019.336, 680.500 2006.540 C 677.200 2004.233, 674.049 2002.085, 673.498 2001.767 C 672.946 2001.448, 670.074 2006.114, 667.114 2012.136 M 734.539 2141.066 C 716.424 2143.847, 701.872 2151.591, 696.997 2161.044 C 693.966 2166.922, 692.695 2179.510, 693.285 2197.825 C 693.873 2216.105, 696.011 2227.536, 702.014 2244.500 C 710.285 2267.871, 732.353 2304.029, 741.110 2308.557 C 743.674 2309.883, 744.326 2309.883, 746.888 2308.558 C 756.014 2303.839, 778.025 2267.472, 786.359 2243.344 C 793.058 2223.951, 794.500 2214.944, 794.500 2192.500 C 794.500 2168.087, 793.566 2163.060, 787.813 2156.525 C 778.182 2145.584, 752.899 2138.247, 734.539 2141.066" stroke="none" fill="#231f20" fill-rule="evenodd"/><path d="M 564.500 633.541 C 517.796 638.387, 484.061 649.258, 454.910 668.856 C 385.058 715.816, 334.780 797.200, 307.477 907.500 C 292.323 968.722, 286.050 1024.728, 286.029 1099 C 285.997 1210.856, 301.498 1318.782, 333.484 1429.402 C 354.555 1502.273, 381.933 1568.713, 424.181 1649.500 C 482.546 1761.109, 541.071 1846.011, 603.971 1910.317 C 646.622 1953.922, 681.373 1980.233, 724.594 2001.645 L 743.688 2011.104 754.699 2006.050 C 799.638 1985.424, 838.852 1956.445, 883.500 1910.870 C 961.399 1831.352, 1035.263 1716.495, 1102.708 1570 C 1150.816 1465.508, 1184.099 1338.040, 1196.968 1209 C 1202.939 1149.127, 1203.570 1064.622, 1198.434 1012.500 C 1185.062 876.777, 1140.424 766.730, 1071.878 700.500 C 1046.283 675.770, 1021.925 659.433, 995.562 649.312 C 969.429 639.280, 926.250 632.033, 892.500 632.014 C 865.229 631.998, 840.564 635.783, 795.423 646.911 C 777.799 651.256, 759.020 655.381, 753.690 656.078 C 740.510 657.802, 731.438 656.507, 696.823 647.956 C 646.320 635.482, 631.411 633.102, 600 632.500 C 585.489 632.222, 573.949 632.560, 564.500 633.541 M 724 805.042 C 724 806.512, 622.290 1462.394, 621.284 1467.412 C 620.615 1470.751, 611.806 1434.063, 561.096 1216.733 C 501.871 962.908, 501.694 962.118, 502.314 954.081 C 503.076 944.200, 505.918 937.211, 511.063 932.562 C 516.161 927.956, 521.522 926.616, 531.750 927.388 L 540 928.012 540 904.006 L 540 880 456 880 L 372 880 372 903.433 C 372 929.569, 371.264 927.107, 379.500 928.503 C 388.793 930.079, 399.700 937.645, 402.566 944.504 C 403.610 947.001, 609 1826.524, 609 1828.494 C 609 1828.772, 615.698 1829, 623.883 1829 C 637.219 1829, 638.814 1828.818, 639.219 1827.250 C 639.468 1826.287, 660.999 1685.904, 687.066 1515.286 C 713.133 1344.669, 734.747 1205.619, 735.097 1206.286 C 735.447 1206.954, 762.899 1347.350, 796.102 1518.277 L 856.471 1829.053 869.878 1828.777 L 883.286 1828.500 980.104 1390.500 C 1033.353 1149.600, 1077.453 950.566, 1078.104 948.202 C 1079.850 941.857, 1084.273 936.417, 1090.241 933.272 C 1094.997 930.765, 1096.481 930.500, 1105.750 930.500 L 1116 930.500 1116 905.250 L 1116 880 1041 880 L 966 880 966 905.012 L 966 930.024 970.250 929.262 C 972.587 928.843, 978.100 928.520, 982.500 928.545 C 995.973 928.621, 1004.686 934.064, 1008.037 944.500 C 1011.215 954.396, 1012.445 948.570, 950.094 1219.002 C 917.568 1360.076, 890.623 1476.310, 890.216 1477.300 C 889.760 1478.409, 877.439 1421.520, 858.162 1329.300 C 840.939 1246.910, 809.219 1095.125, 787.672 992 L 748.497 804.500 736.249 804.219 C 727.817 804.026, 724 804.282, 724 805.042 M 1466.370 994 C 1466.370 999.775, 1466.535 1002.138, 1466.737 999.250 C 1466.939 996.362, 1466.939 991.638, 1466.737 988.750 C 1466.535 985.862, 1466.370 988.225, 1466.370 994 M 21.378 997 C 21.378 1003.325, 21.541 1005.913, 21.739 1002.750 C 21.937 999.587, 21.937 994.413, 21.739 991.250 C 21.541 988.087, 21.378 990.675, 21.378 997 M 1397.423 1006.500 C 1397.424 1018.050, 1397.570 1022.638, 1397.747 1016.696 C 1397.924 1010.753, 1397.923 1001.303, 1397.745 995.696 C 1397.567 990.088, 1397.422 994.950, 1397.423 1006.500 M 90.419 1006 C 90.419 1016.725, 90.566 1021.112, 90.746 1015.750 C 90.925 1010.388, 90.925 1001.612, 90.746 996.250 C 90.566 990.888, 90.419 995.275, 90.419 1006 M 21.382 1033.500 C 21.384 1040.100, 21.546 1042.670, 21.741 1039.211 C 21.937 1035.752, 21.936 1030.352, 21.738 1027.211 C 21.540 1024.070, 21.380 1026.900, 21.382 1033.500 M 1466.370 1036 C 1466.370 1041.775, 1466.535 1044.138, 1466.737 1041.250 C 1466.939 1038.362, 1466.939 1033.638, 1466.737 1030.750 C 1466.535 1027.862, 1466.370 1030.225, 1466.370 1036" stroke="none" fill="#870d15" fill-rule="evenodd"/><path d="M 723.500 25.109 C 691.496 29.720, 663.339 49.112, 647.488 77.455 C 643.638 84.340, 638.633 96.998, 639.759 97.004 C 643.379 97.024, 660.514 100.502, 667.172 102.568 C 679.103 106.272, 696.125 114.963, 706.075 122.433 C 716.787 130.475, 730.346 144.630, 736.674 154.376 C 744.735 166.793, 743.805 165.787, 745.250 163.655 C 745.938 162.640, 748.672 158.465, 751.326 154.376 C 757.654 144.630, 771.213 130.475, 781.925 122.433 C 791.875 114.963, 808.897 106.272, 820.828 102.568 C 827.444 100.515, 844.610 97.025, 848.196 97.004 C 849.363 96.997, 845.198 86.029, 841.385 79.066 C 824.850 48.877, 797.305 29.765, 763.566 25.072 C 754.635 23.830, 732.230 23.850, 723.500 25.109 M 616.520 121.044 C 584.453 126.092, 556.627 143.644, 539.202 169.816 C 535.791 174.939, 533 179.490, 533 179.929 C 533 180.367, 536.890 181.499, 541.645 182.443 C 563.605 186.804, 587.900 194.975, 606.396 204.219 C 624.243 213.138, 635.509 221.633, 652.040 238.633 C 690.829 278.523, 714.264 327.185, 721.565 383 C 723.858 400.532, 723.091 434.362, 720.086 448.199 C 706.479 510.861, 659.400 546.759, 578.500 556.159 C 564.885 557.741, 523.235 557.736, 509 556.151 C 493.007 554.370, 489.777 552.983, 480.948 544.099 C 466.693 529.756, 457.695 506.105, 453.938 473.102 C 452.207 457.891, 453.217 425.611, 455.894 410.602 C 462.911 371.266, 480.797 344.425, 501.409 342.297 C 508.078 341.609, 517.912 344.122, 524.854 348.287 C 545.691 360.792, 557.580 393.188, 554.016 427.756 C 550.689 460.024, 538.668 487.742, 523.235 498.733 C 515.276 504.401, 508.652 504.278, 502.546 498.348 C 491.726 487.839, 484.823 466.806, 484.710 444 C 484.639 429.791, 486.380 421.232, 490.810 414.019 C 496.040 405.502, 504.566 402.511, 510.440 407.131 C 515.404 411.036, 515.408 412.974, 510.472 423.229 C 504.248 436.160, 502.585 446.495, 505.113 456.533 C 505.724 458.963, 507.328 462.141, 508.676 463.596 C 515.581 471.046, 527.534 459.529, 532.129 441 C 534.072 433.166, 533.814 408.608, 531.688 399 C 528.238 383.411, 520.228 371.883, 510.906 369.090 C 504.566 367.191, 499.794 368.481, 494.048 373.646 C 484.853 381.914, 478.409 395.498, 474.193 415.500 C 472.025 425.788, 471.652 430.211, 471.582 446.500 C 471.494 466.872, 472.467 474.832, 476.716 488.500 C 481.875 505.098, 491.265 518.508, 501.408 523.766 C 505.639 525.959, 507.853 526.412, 514.500 526.444 C 521.654 526.478, 523.293 526.104, 530 522.904 C 549.176 513.755, 566.288 489.002, 574.476 458.569 C 582.407 429.092, 581.576 393.456, 572.359 367.756 C 559.327 331.419, 536.652 309.733, 506.688 304.952 C 497.078 303.419, 472.069 304.210, 457 306.525 C 410.278 313.701, 366.239 333.847, 325.022 366.899 C 306.814 381.500, 280.825 408.108, 265.060 428.289 L 259.756 435.079 262.971 442.737 C 277.892 478.285, 317.411 526.155, 363.500 564.511 C 389.758 586.363, 436.958 618.853, 457.688 629.345 L 462.877 631.971 474.542 627.463 C 502.083 616.818, 531.658 609.403, 556.458 606.924 C 571.247 605.446, 605.192 606.219, 624 608.462 C 652.313 611.838, 680.146 616.849, 714.500 624.756 C 730.769 628.501, 736.272 629.359, 744 629.359 C 751.728 629.359, 757.231 628.501, 773.500 624.756 C 826.105 612.649, 862.683 607.247, 898.542 606.290 C 938.306 605.230, 968.748 610.715, 1010.864 626.531 L 1025.228 631.925 1029.364 629.845 C 1040.471 624.261, 1072.436 603.883, 1090 591.189 C 1152.339 546.135, 1201.175 493.318, 1223.032 447.312 C 1229.028 434.692, 1229.265 436.056, 1218.810 423 C 1207.402 408.754, 1175.840 377.022, 1162.688 366.577 C 1112.973 327.096, 1060.683 306.404, 1005.333 304.311 C 986.739 303.607, 977.289 304.731, 966.359 308.947 C 938.852 319.557, 918.243 348.516, 910.294 387.730 C 907.550 401.269, 907.806 431.799, 910.788 446.665 C 913.840 461.879, 917.073 471.505, 923.494 484.500 C 932.786 503.304, 945.069 516.841, 958.640 523.234 C 964.616 526.049, 966.530 526.461, 973.500 526.435 C 980.157 526.411, 982.355 525.963, 986.592 523.766 C 996.891 518.427, 1005.956 505.472, 1011.267 488.500 C 1015.494 474.993, 1016.505 466.869, 1016.431 447 C 1016.335 421.413, 1013.335 405.948, 1005.181 389 C 1000.563 379.403, 991.272 369.648, 985.765 368.615 C 966.722 365.044, 952.510 391.260, 954.386 426.500 C 955.288 443.425, 959.519 455.736, 966.558 461.917 C 975.574 469.833, 982.586 465.205, 983.736 450.577 C 984.418 441.904, 982.635 433.955, 977.604 423.235 C 975.077 417.851, 973.433 413.059, 973.728 411.932 C 974.623 408.508, 979.785 405, 983.929 405 C 991.604 405, 998.418 412.691, 1001.647 425 C 1003.852 433.402, 1003.859 453.646, 1001.661 463.593 C 999.371 473.954, 994.686 486.127, 990.644 492.217 C 981.681 505.721, 971.484 506.297, 959.379 493.983 C 950.106 484.551, 943.130 470.408, 938.088 450.823 C 924.874 399.494, 941.170 352.050, 974.978 343.421 C 996.949 337.813, 1014.840 353.408, 1026.510 388.340 C 1032.912 407.505, 1034.444 419.082, 1034.469 448.500 C 1034.494 478.221, 1032.872 490.664, 1026.487 509.744 C 1021.020 526.083, 1015.817 535.280, 1007.052 544.099 C 998.223 552.983, 994.993 554.370, 979 556.151 C 964.765 557.736, 923.115 557.741, 909.500 556.159 C 834.014 547.388, 787.381 514.978, 771.023 459.916 C 762.952 432.747, 762.800 394.275, 770.625 359 C 778.105 325.286, 794.491 290.019, 815.854 261.659 C 829.603 243.407, 852.123 221.706, 867.598 211.797 C 873.593 207.958, 888.976 200.369, 898.877 196.366 C 909.293 192.154, 934.220 184.836, 946.250 182.457 C 951.062 181.505, 955 180.367, 955 179.929 C 955 179.490, 952.209 174.939, 948.798 169.816 C 923.765 132.217, 877.805 113.285, 833.952 122.510 C 807.914 127.987, 783.513 142.318, 768.888 160.722 C 760.880 170.798, 756.664 178.724, 752.537 191.455 C 748.913 202.638, 746.939 206, 744 206 C 741.047 206, 739.098 202.640, 735.545 191.425 C 724.561 156.753, 694.062 131.006, 653.838 122.448 C 644.834 120.533, 624.605 119.772, 616.520 121.044 M 480 203.663 C 452.847 205.555, 435.466 208.549, 411.006 215.546 C 368.963 227.573, 338.718 241.512, 302.500 265.551 C 232.999 311.682, 176.863 378.291, 131.040 469 C 72.351 585.177, 38.775 722.672, 25.545 901 C 20.472 969.381, 20.471 1057.563, 25.543 1135 C 46.573 1456.055, 148.124 1764.421, 303.819 1980 C 397.518 2109.737, 504.040 2198.412, 626.247 2248.406 C 651.015 2258.538, 686.151 2270.182, 687.596 2268.737 C 687.865 2268.468, 686.957 2265.699, 685.579 2262.583 C 677.818 2245.034, 672.186 2220.525, 671.147 2199.781 L 670.500 2186.861 660.263 2183.001 C 559.101 2144.860, 457.729 2062.866, 374.051 1951.500 C 168.664 1678.156, 56.849 1224.776, 99.557 838.500 C 116.817 682.394, 160.535 545.876, 224.770 447.500 C 286.116 353.549, 366.486 296.387, 455.455 283.430 C 470.661 281.216, 495.040 280.483, 505.012 281.941 C 526.668 285.108, 544.297 293.718, 560.411 308.998 C 579.537 327.135, 592.607 352.045, 598.976 382.500 C 601.987 396.896, 602.736 422.660, 600.610 438.695 C 596.327 471.003, 584.392 500.616, 568.073 519.427 C 565.722 522.137, 563.073 525.876, 562.186 527.736 C 560.076 532.161, 561.501 533.139, 569 532.412 C 616.117 527.848, 656.949 507.538, 679.228 477.586 C 695.081 456.274, 701.877 431.978, 700.724 400.741 C 698.271 334.285, 667.603 273.520, 617.399 235.643 C 595.846 219.382, 562.233 207.482, 528.144 204.044 C 518.752 203.097, 491.247 202.879, 480 203.663 M 958.051 204.076 C 924.870 207.824, 891.732 219.780, 870.500 235.661 C 858.840 244.383, 839.194 264.065, 830.736 275.500 C 803.632 312.142, 788.796 355.371, 787.322 402 C 786.529 427.097, 790.425 445.926, 800.149 464 C 820.461 501.752, 864.564 527.138, 919 532.412 C 926.499 533.139, 927.924 532.161, 925.814 527.736 C 924.927 525.876, 922.278 522.137, 919.927 519.427 C 906.713 504.195, 895.554 480.026, 890.171 454.977 C 875.230 385.461, 901.322 316.919, 952.500 291.245 C 968.237 283.350, 984.345 280.420, 1006.964 281.337 C 1130.071 286.330, 1238.835 376.295, 1308.797 531 C 1354.877 632.897, 1383.388 754.509, 1393.429 892 C 1398.791 965.420, 1398.796 1045.672, 1393.443 1123.500 C 1370.419 1458.275, 1253.357 1786.519, 1085.136 1988 C 1018.516 2067.792, 945.273 2127.416, 866.500 2165.984 C 852.044 2173.062, 828.366 2183.164, 818.904 2186.292 C 817.591 2186.726, 817.199 2189.188, 816.698 2200.160 C 815.650 2223.129, 810.758 2243.417, 800.488 2267.392 C 799.747 2269.120, 800.014 2269.224, 803.589 2268.592 C 809.422 2267.561, 838.309 2257.676, 856.500 2250.485 C 951.662 2212.870, 1041.985 2147.894, 1118.523 2061.994 C 1230.762 1936.026, 1321.888 1765.773, 1383.462 1567 C 1451.349 1347.848, 1479.272 1100.806, 1460.943 881.500 C 1446.889 713.349, 1413.516 580.955, 1356.960 469 C 1311.742 379.488, 1256.499 313.463, 1188.037 267.107 C 1138.107 233.299, 1080.704 211.434, 1025 205.007 C 1012.031 203.510, 968.424 202.904, 958.051 204.076 M 247.689 451.831 C 246.878 452.749, 242.720 458.900, 238.450 465.500 C 170.488 570.534, 127.917 719.190, 116.440 891.550 L 115.771 901.599 126.992 906.863 C 159.721 922.215, 194.759 933.560, 230.500 940.379 C 244.675 943.083, 269.861 946.472, 270.564 945.769 C 270.806 945.528, 272.381 938.168, 274.066 929.415 C 290.976 841.533, 325.707 762.947, 372.655 706.334 C 382.758 694.152, 403.559 673.479, 415.416 663.838 C 420.320 659.851, 429.396 653.167, 435.585 648.985 L 446.837 641.381 438.669 636.513 C 406.305 617.224, 369.465 590.344, 341.784 565.821 C 302.822 531.305, 270.062 491.910, 254.546 460.915 C 249.672 451.179, 249.024 450.320, 247.689 451.831 M 1234.599 458.510 C 1215.835 499.050, 1164.317 555.047, 1105.500 598.831 C 1090.826 609.754, 1063.223 628.281, 1049.341 636.525 L 1041.181 641.370 1048.129 646.156 C 1071.610 662.332, 1101.322 689.865, 1117.779 710.697 C 1164.528 769.878, 1196.419 842.067, 1213.555 927.499 C 1215.540 937.399, 1217.325 945.658, 1217.520 945.853 C 1218.153 946.486, 1244.144 942.927, 1257.500 940.379 C 1293.247 933.559, 1328.278 922.215, 1361.022 906.856 L 1372.257 901.586 1371.591 891.543 C 1361.046 732.644, 1323.901 593.336, 1264.542 490.068 C 1256.440 475.974, 1239.856 449.988, 1239 450.046 C 1238.725 450.065, 1236.744 453.873, 1234.599 458.510 M 723.998 804.719 C 723.997 805.149, 729.240 805.359, 735.650 805.187 C 744.423 804.951, 747.532 805.198, 748.228 806.187 C 748.951 807.214, 749.063 807.173, 748.744 806 C 748.416 804.792, 745.972 804.445, 736.168 804.219 C 729.476 804.065, 723.999 804.290, 723.998 804.719 M 539.432 904 C 539.432 917.475, 539.574 922.987, 539.747 916.250 C 539.920 909.513, 539.920 898.487, 539.747 891.750 C 539.574 885.013, 539.432 890.525, 539.432 904 M 966.231 904.750 C 966.016 928.224, 966.123 929.999, 967.750 929.985 C 968.977 929.974, 969.132 929.736, 968.268 929.187 C 967.361 928.611, 966.961 921.967, 966.750 903.952 L 966.463 879.500 966.231 904.750 M 114.643 924.700 C 114.283 928.440, 113.707 950.625, 113.362 974 C 111.255 1117.019, 127.410 1264.803, 161.086 1410.571 C 188.848 1530.739, 227.745 1643.674, 276.960 1747 C 282.592 1758.825, 287.557 1768.879, 287.993 1769.343 C 289.003 1770.417, 314.029 1764.311, 330.703 1758.922 C 364.780 1747.909, 395.698 1731.963, 418.764 1713.506 C 425.553 1708.074, 425.940 1707.555, 424.675 1705.596 C 415.607 1691.556, 376.450 1613.737, 362.204 1581.444 C 319.462 1484.556, 290.824 1388.374, 274.534 1287 C 256.756 1176.357, 254.587 1063.253, 268.303 962.045 C 268.458 960.902, 265.584 960.226, 254.938 958.900 C 210.397 953.353, 166.964 941.379, 129.500 924.319 C 122.900 921.314, 117.005 918.640, 116.399 918.378 C 115.692 918.071, 115.064 920.330, 114.643 924.700 M 1363.500 922.063 C 1327.477 939.591, 1269.478 955.625, 1228 959.522 C 1223.875 959.910, 1220.243 960.378, 1219.929 960.562 C 1219.615 960.746, 1219.933 965.082, 1220.636 970.198 C 1222.726 985.420, 1225.875 1017.281, 1227.138 1036 C 1228.668 1058.666, 1228.672 1134.931, 1227.145 1160 C 1217.609 1316.536, 1184.187 1452.438, 1120.780 1592.500 C 1106.227 1624.648, 1074.758 1686.665, 1063.892 1704.611 L 1062.008 1707.722 1069.254 1713.521 C 1092.523 1732.140, 1123.819 1748.174, 1158.898 1759.445 C 1174.548 1764.474, 1199.039 1770.368, 1200.025 1769.343 C 1201.204 1768.117, 1220.540 1727.195, 1229.530 1706.899 C 1325.285 1490.719, 1378.325 1222.856, 1374.651 974 C 1374.043 932.825, 1373.364 917.908, 1372.105 918.085 C 1371.772 918.132, 1367.900 919.922, 1363.500 922.063 M 426.500 1726.156 C 399.695 1748.497, 351.971 1770.493, 308.257 1780.654 C 301.524 1782.219, 296.011 1783.899, 296.007 1784.386 C 295.998 1785.513, 309.855 1811.233, 320.312 1829.500 C 347.948 1877.774, 379.002 1923.750, 410.483 1963 C 450.755 2013.209, 495.096 2056.903, 540.014 2090.640 C 551.884 2099.555, 564.107 2108, 565.140 2108 C 567.003 2108, 585.719 2091.444, 600.093 2077.081 C 617.490 2059.697, 628.541 2046.322, 640.232 2028.500 C 648.037 2016.601, 659.047 1995.679, 658.949 1992.930 C 658.921 1992.144, 654.309 1988.055, 648.699 1983.845 C 624.665 1965.808, 590.926 1934.029, 564.457 1904.500 C 522.342 1857.515, 479.972 1799.092, 443.169 1737.254 C 437.851 1728.319, 433.275 1721.042, 433 1721.082 C 432.725 1721.123, 429.800 1723.406, 426.500 1726.156 M 1045.500 1736.179 C 1017.041 1784.089, 980.733 1836.264, 948.549 1875.500 C 914.375 1917.161, 871.370 1959.815, 839.301 1983.854 C 833.691 1988.059, 829.079 1992.144, 829.051 1992.930 C 828.946 1995.887, 840.375 2017.317, 848.908 2030.164 C 853.780 2037.499, 862.484 2049.125, 868.250 2056 C 885.889 2077.034, 920.234 2108.892, 923.796 2107.525 C 926.937 2106.320, 947.482 2091.357, 962.307 2079.478 C 1039.335 2017.756, 1107.438 1934.692, 1168.488 1828 C 1180.957 1806.209, 1192.004 1785.706, 1191.993 1784.376 C 1191.989 1783.894, 1186.476 1782.219, 1179.743 1780.654 C 1136.033 1770.494, 1089.620 1749.118, 1061.245 1726.079 C 1057.805 1723.285, 1054.880 1721.006, 1054.745 1721.014 C 1054.610 1721.022, 1050.450 1727.846, 1045.500 1736.179 M 883 1826.387 C 883 1827.945, 881.721 1828.079, 869.498 1827.804 C 862.072 1827.637, 855.997 1827.838, 855.998 1828.250 C 855.999 1828.662, 862.089 1829, 869.531 1829 C 880.805 1829, 883.162 1828.743, 883.655 1827.457 C 883.981 1826.608, 883.966 1825.633, 883.624 1825.290 C 883.281 1824.947, 883 1825.441, 883 1826.387 M 616.250 1828.743 C 620.513 1828.931, 627.487 1828.931, 631.750 1828.743 C 636.013 1828.556, 632.525 1828.402, 624 1828.402 C 615.475 1828.402, 611.987 1828.556, 616.250 1828.743 M 666.798 2012.966 C 659.899 2026.921, 648.310 2044.822, 636.996 2059 C 627.695 2070.655, 596.244 2102.532, 585.750 2110.941 C 582.038 2113.915, 579 2116.711, 579 2117.154 C 579 2118.613, 604.136 2132.932, 625 2143.359 C 643.956 2152.833, 669.815 2164.012, 672.750 2164.004 C 673.449 2164.002, 674 2162.776, 674 2161.222 C 674 2155.701, 680.286 2144.880, 687.300 2138.327 C 716.039 2111.480, 776.315 2112.676, 803.185 2140.626 C 808.300 2145.947, 812.812 2154.067, 813.703 2159.554 C 814.014 2161.476, 814.681 2163.303, 815.183 2163.613 C 816.750 2164.581, 841.581 2154.064, 863 2143.359 C 885.095 2132.317, 909.323 2118.403, 908.814 2117.047 C 908.641 2116.587, 902.875 2111.289, 896 2105.273 C 863.153 2076.531, 835.973 2043.016, 821.283 2013.138 L 815.500 2001.377 803 2009.570 C 780.090 2024.586, 747.931 2040.636, 742.809 2039.612 C 734.834 2038.017, 703.990 2022.002, 685 2009.597 L 672.500 2001.431 666.798 2012.966 M 726.021 2143.068 C 710.935 2147.018, 700.331 2153.729, 696.901 2161.500 C 694.104 2167.834, 692.691 2181.954, 693.248 2198 C 694.325 2229.064, 704.602 2258.315, 725.361 2289.405 C 742.680 2315.344, 745.327 2315.317, 762.902 2289.025 C 783.392 2258.371, 793.678 2228.975, 794.752 2198 C 795.309 2181.954, 793.896 2167.834, 791.099 2161.500 C 784.291 2146.076, 750.782 2136.586, 726.021 2143.068" stroke="none" fill="#dfc3a3" fill-rule="evenodd"/></svg>